<svg xmlns="http://www.w3.org/2000/svg" width="840" height="240" viewBox="0 0 840 240" role="img" aria-label="Lavínia Alencar: Analytics engineer, Technology · Design · Creation · Coffee, Code, electronics, 3D printing">
<defs><filter id="grain" x="0" y="0" width="100%" height="100%"><feTurbulence type="fractalNoise" baseFrequency=".85" numOctaves="2" stitchTiles="stitch"/><feColorMatrix values="0 0 0 0 .95  0 0 0 0 .95  0 0 0 0 .94  0 0 0 .08 0"/></filter><linearGradient id="fade" x1="0" x2="1"><stop offset="0" stop-color="#fff" stop-opacity="0"/><stop offset=".4" stop-color="#fff"/><stop offset="1" stop-color="#fff"/></linearGradient></defs>
<style>
.cap{font:600 11px 'IBM Plex Mono','SFMono-Regular',Menlo,Consolas,monospace;fill:#B8BAC2;letter-spacing:2px}
.nm{font:800 54px Archivo,'Helvetica Neue',Arial,sans-serif;fill:#F2F2F0;letter-spacing:-1.5px}
.pr{font:500 24px 'IBM Plex Mono','SFMono-Regular',Menlo,Consolas,monospace;fill:#B8BAC2}
.ty{font:500 24px 'IBM Plex Mono','SFMono-Regular',Menlo,Consolas,monospace;fill:#8497EE}
@keyframes t0{0%{width:0}0.000%{width:0;animation-timing-function:steps(18,end)}10.833%{width:259.2px}24.167%{width:259.2px;animation-timing-function:steps(18,end)}28.333%{width:0}100%{width:0}}#c0 rect{animation:t0 12.0s linear infinite;animation-delay:-1.3s}@keyframes t1{0%{width:0}33.333%{width:0;animation-timing-function:steps(39,end)}44.167%{width:561.6px}57.500%{width:561.6px;animation-timing-function:steps(39,end)}61.667%{width:0}100%{width:0}}#c1 rect{animation:t1 12.0s linear infinite;animation-delay:-1.3s}@keyframes t2{0%{width:0}66.667%{width:0;animation-timing-function:steps(30,end)}77.500%{width:432.0px}90.833%{width:432.0px;animation-timing-function:steps(30,end)}95.000%{width:0}100%{width:0}}#c2 rect{animation:t2 12.0s linear infinite;animation-delay:-1.3s}@keyframes cur{0%{transform:translateX(0)}0.000%{transform:translateX(0);animation-timing-function:steps(18,end)}10.833%{transform:translateX(259.2px)}24.167%{transform:translateX(259.2px);animation-timing-function:steps(18,end)}28.333%{transform:translateX(0)}33.333%{transform:translateX(0);animation-timing-function:steps(39,end)}44.167%{transform:translateX(561.6px)}57.500%{transform:translateX(561.6px);animation-timing-function:steps(39,end)}61.667%{transform:translateX(0)}66.667%{transform:translateX(0);animation-timing-function:steps(30,end)}77.500%{transform:translateX(432.0px)}90.833%{transform:translateX(432.0px);animation-timing-function:steps(30,end)}95.000%{transform:translateX(0)}100%{transform:translateX(0)}}.cur{animation:cur 12.0s linear infinite;animation-delay:-1.3s}@keyframes blink{0%,49%{opacity:1}50%,100%{opacity:0}}.cur rect{animation:blink 1s step-end infinite}
@keyframes run{from{stroke-dashoffset:100}to{stroke-dashoffset:0}}.sig{animation:run 2.4s linear infinite}@keyframes beat{0%,100%{opacity:1}50%{opacity:.35}}.hub{animation:beat 3s ease-in-out infinite}
</style>
<rect width="840" height="240" fill="#1A1C21"/>
<mask id="m7"><rect x="440" width="410" height="240" fill="url(#fade)"/></mask><g mask="url(#m7)"><line x1="626.2" y1="30.6" x2="582.3" y2="50.1" stroke="#2A3569" stroke-width="1"/><line x1="626.2" y1="30.6" x2="670.8" y2="38.9" stroke="#2B3777" stroke-width="1"/><line x1="626.2" y1="30.6" x2="635.4" y2="-3.4" stroke="#2A3671" stroke-width="1"/><line x1="626.2" y1="30.6" x2="595.6" y2="-4.1" stroke="#2A356B" stroke-width="1"/><line x1="743.6" y1="10.5" x2="709.0" y2="8.1" stroke="#2B3B90" stroke-width="1"/><line x1="743.6" y1="10.5" x2="799.5" y2="33.3" stroke="#2B3D9F" stroke-width="1"/><line x1="743.6" y1="10.5" x2="780.4" y2="2.4" stroke="#2B3D9C" stroke-width="1"/><line x1="704.9" y1="85.6" x2="739.6" y2="87.3" stroke="#2B3B8F" stroke-width="1"/><line x1="704.9" y1="85.6" x2="653.0" y2="94.1" stroke="#2B3981" stroke-width="1"/><line x1="704.9" y1="85.6" x2="680.2" y2="115.9" stroke="#2B3985" stroke-width="1"/><line x1="704.9" y1="85.6" x2="730.9" y2="121.4" stroke="#2B3B8D" stroke-width="1"/><line x1="495.9" y1="121.9" x2="482.5" y2="163.1" stroke="#2A2F44" stroke-width="1"/><line x1="495.9" y1="121.9" x2="448.7" y2="99.3" stroke="#2A2F3E" stroke-width="1"/><line x1="495.9" y1="121.9" x2="523.8" y2="154.4" stroke="#2A304A" stroke-width="1"/><line x1="495.9" y1="121.9" x2="522.6" y2="85.1" stroke="#2A304A" stroke-width="1"/><line x1="495.9" y1="121.9" x2="461.5" y2="133.2" stroke="#2A2F40" stroke-width="1"/><line x1="503.6" y1="15.2" x2="535.0" y2="49.1" stroke="#2A314E" stroke-width="1"/><line x1="503.6" y1="15.2" x2="557.6" y2="22.0" stroke="#2A3151" stroke-width="1"/><line x1="503.6" y1="15.2" x2="441.2" y2="30.7" stroke="#2A2F3E" stroke-width="1"/><line x1="503.6" y1="15.2" x2="473.5" y2="63.5" stroke="#2A2F44" stroke-width="1"/><line x1="665.1" y1="203.7" x2="620.0" y2="200.9" stroke="#2A3775" stroke-width="1"/><line x1="665.1" y1="203.7" x2="701.2" y2="216.0" stroke="#2B3982" stroke-width="1"/><line x1="665.1" y1="203.7" x2="683.2" y2="162.0" stroke="#2B387F" stroke-width="1"/><line x1="665.1" y1="203.7" x2="645.7" y2="236.8" stroke="#2B3879" stroke-width="1"/><line x1="535.0" y1="49.1" x2="557.6" y2="22.0" stroke="#2A3256" stroke-width="1"/><line x1="535.0" y1="49.1" x2="522.6" y2="85.1" stroke="#2A3151" stroke-width="1"/><line x1="535.0" y1="49.1" x2="582.3" y2="50.1" stroke="#2A335A" stroke-width="1"/><line x1="735.9" y1="234.6" x2="701.2" y2="216.0" stroke="#2B3B8E" stroke-width="1"/><line x1="735.9" y1="234.6" x2="744.2" y2="196.7" stroke="#2B3C95" stroke-width="1"/><line x1="735.9" y1="234.6" x2="769.8" y2="247.4" stroke="#2B3C99" stroke-width="1"/><line x1="843.2" y1="3.9" x2="799.5" y2="33.3" stroke="#2B40AF" stroke-width="1"/><line x1="843.2" y1="3.9" x2="843.2" y2="58.6" stroke="#2B41B6" stroke-width="1"/><line x1="843.2" y1="3.9" x2="780.4" y2="2.4" stroke="#2B3FAC" stroke-width="1"/><line x1="808.5" y1="66.1" x2="768.8" y2="65.7" stroke="#2B3EA4" stroke-width="1"/><line x1="808.5" y1="66.1" x2="799.5" y2="33.3" stroke="#2B3FA9" stroke-width="1"/><line x1="808.5" y1="66.1" x2="837.4" y2="106.5" stroke="#2B40AF" stroke-width="1"/><line x1="808.5" y1="66.1" x2="803.0" y2="114.7" stroke="#2B3FAA" stroke-width="1"/><line x1="808.5" y1="66.1" x2="843.2" y2="58.6" stroke="#2B40B0" stroke-width="1"/><line x1="620.0" y1="200.9" x2="599.3" y2="169.3" stroke="#2A356B" stroke-width="1"/><line x1="620.0" y1="200.9" x2="581.9" y2="235.8" stroke="#2A3568" stroke-width="1"/><line x1="620.0" y1="200.9" x2="645.7" y2="236.8" stroke="#2A3672" stroke-width="1"/><line x1="563.8" y1="140.9" x2="523.8" y2="154.4" stroke="#2A3255" stroke-width="1"/><line x1="563.8" y1="140.9" x2="599.3" y2="169.3" stroke="#2A3462" stroke-width="1"/><line x1="563.8" y1="140.9" x2="554.4" y2="102.5" stroke="#2A335A" stroke-width="1"/><line x1="739.6" y1="87.3" x2="768.8" y2="65.7" stroke="#2B3C99" stroke-width="1"/><line x1="739.6" y1="87.3" x2="730.9" y2="121.4" stroke="#2B3B93" stroke-width="1"/><line x1="739.6" y1="87.3" x2="769.7" y2="107.4" stroke="#2B3C99" stroke-width="1"/><line x1="709.0" y1="8.1" x2="670.8" y2="38.9" stroke="#2B3984" stroke-width="1"/><line x1="709.0" y1="8.1" x2="780.4" y2="2.4" stroke="#2B3C96" stroke-width="1"/><line x1="622.3" y1="141.9" x2="607.5" y2="98.3" stroke="#2A366C" stroke-width="1"/><line x1="622.3" y1="141.9" x2="653.0" y2="94.1" stroke="#2A3774" stroke-width="1"/><line x1="622.3" y1="141.9" x2="599.3" y2="169.3" stroke="#2A356B" stroke-width="1"/><line x1="789.0" y1="170.9" x2="757.9" y2="144.2" stroke="#2B3D9F" stroke-width="1"/><line x1="789.0" y1="170.9" x2="836.4" y2="168.8" stroke="#2B3FAC" stroke-width="1"/><line x1="789.0" y1="170.9" x2="813.3" y2="196.3" stroke="#2B3FA8" stroke-width="1"/><line x1="701.2" y1="216.0" x2="744.2" y2="196.7" stroke="#2B3B8F" stroke-width="1"/><line x1="701.2" y1="216.0" x2="716.8" y2="171.3" stroke="#2B3A8B" stroke-width="1"/><line x1="701.2" y1="216.0" x2="645.7" y2="236.8" stroke="#2B387F" stroke-width="1"/><line x1="768.8" y1="65.7" x2="799.5" y2="33.3" stroke="#2B3EA3" stroke-width="1"/><line x1="768.8" y1="65.7" x2="769.7" y2="107.4" stroke="#2B3D9E" stroke-width="1"/><line x1="482.5" y1="163.1" x2="523.8" y2="154.4" stroke="#2A3048" stroke-width="1"/><line x1="482.5" y1="163.1" x2="471.4" y2="215.8" stroke="#2A2F40" stroke-width="1"/><line x1="482.5" y1="163.1" x2="444.8" y2="184.2" stroke="#2A2E3C" stroke-width="1"/><line x1="482.5" y1="163.1" x2="461.5" y2="133.2" stroke="#2A2F3E" stroke-width="1"/><line x1="757.9" y1="144.2" x2="730.9" y2="121.4" stroke="#2B3C96" stroke-width="1"/><line x1="757.9" y1="144.2" x2="769.7" y2="107.4" stroke="#2B3D9C" stroke-width="1"/><line x1="802.9" y1="233.8" x2="813.3" y2="196.3" stroke="#2B3FAB" stroke-width="1"/><line x1="802.9" y1="233.8" x2="847.1" y2="205.1" stroke="#2B40B0" stroke-width="1"/><line x1="802.9" y1="233.8" x2="769.8" y2="247.4" stroke="#2B3EA4" stroke-width="1"/><line x1="683.2" y1="162.0" x2="680.2" y2="115.9" stroke="#2B3982" stroke-width="1"/><line x1="683.2" y1="162.0" x2="716.8" y2="171.3" stroke="#2B3A88" stroke-width="1"/><line x1="557.6" y1="22.0" x2="582.3" y2="50.1" stroke="#2A335E" stroke-width="1"/><line x1="557.6" y1="22.0" x2="595.6" y2="-4.1" stroke="#2A3460" stroke-width="1"/><line x1="607.5" y1="98.3" x2="653.0" y2="94.1" stroke="#2A3671" stroke-width="1"/><line x1="607.5" y1="98.3" x2="554.4" y2="102.5" stroke="#2A3461" stroke-width="1"/><line x1="448.7" y1="99.3" x2="441.2" y2="30.7" stroke="#2A2D36" stroke-width="1"/><line x1="448.7" y1="99.3" x2="473.5" y2="63.5" stroke="#2A2E3B" stroke-width="1"/><line x1="448.7" y1="99.3" x2="461.5" y2="133.2" stroke="#2A2E39" stroke-width="1"/><line x1="836.4" y1="168.8" x2="813.3" y2="196.3" stroke="#2B40B0" stroke-width="1"/><line x1="836.4" y1="168.8" x2="847.1" y2="205.1" stroke="#2B41B5" stroke-width="1"/><line x1="813.3" y1="196.3" x2="847.1" y2="205.1" stroke="#2B40B2" stroke-width="1"/><line x1="653.0" y1="94.1" x2="680.2" y2="115.9" stroke="#2B387D" stroke-width="1"/><line x1="523.8" y1="154.4" x2="557.2" y2="189.6" stroke="#2A3254" stroke-width="1"/><line x1="441.2" y1="30.7" x2="473.5" y2="63.5" stroke="#2A2E3A" stroke-width="1"/><line x1="522.6" y1="85.1" x2="473.5" y2="63.5" stroke="#2A3047" stroke-width="1"/><line x1="522.6" y1="85.1" x2="554.4" y2="102.5" stroke="#2A3254" stroke-width="1"/><line x1="471.4" y1="215.8" x2="500.0" y2="244.2" stroke="#2A2F43" stroke-width="1"/><line x1="471.4" y1="215.8" x2="444.8" y2="184.2" stroke="#2A2E3A" stroke-width="1"/><line x1="799.5" y1="33.3" x2="843.2" y2="58.6" stroke="#2B40AF" stroke-width="1"/><line x1="799.5" y1="33.3" x2="780.4" y2="2.4" stroke="#2B3EA5" stroke-width="1"/><line x1="557.2" y1="189.6" x2="599.3" y2="169.3" stroke="#2A3461" stroke-width="1"/><line x1="557.2" y1="189.6" x2="538.9" y2="225.0" stroke="#2A3257" stroke-width="1"/><line x1="557.2" y1="189.6" x2="581.9" y2="235.8" stroke="#2A335E" stroke-width="1"/><line x1="557.2" y1="189.6" x2="500.0" y2="244.2" stroke="#2A3151" stroke-width="1"/><line x1="837.4" y1="106.5" x2="803.0" y2="114.7" stroke="#2B40AE" stroke-width="1"/><line x1="837.4" y1="106.5" x2="843.2" y2="58.6" stroke="#2B41B5" stroke-width="1"/><line x1="803.0" y1="114.7" x2="769.7" y2="107.4" stroke="#2B3EA4" stroke-width="1"/><line x1="744.2" y1="196.7" x2="716.8" y2="171.3" stroke="#2B3B92" stroke-width="1"/><line x1="744.2" y1="196.7" x2="769.8" y2="247.4" stroke="#2B3C9A" stroke-width="1"/><line x1="538.9" y1="225.0" x2="581.9" y2="235.8" stroke="#2A335B" stroke-width="1"/><line x1="538.9" y1="225.0" x2="500.0" y2="244.2" stroke="#2A314E" stroke-width="1"/><line x1="670.8" y1="38.9" x2="635.4" y2="-3.4" stroke="#2B3779" stroke-width="1"/><line x1="730.9" y1="121.4" x2="769.7" y2="107.4" stroke="#2B3C98" stroke-width="1"/><line x1="635.4" y1="-3.4" x2="595.6" y2="-4.1" stroke="#2A366D" stroke-width="1"/><line x1="444.8" y1="184.2" x2="461.5" y2="133.2" stroke="#2A2E38" stroke-width="1"/><line class="sig" style="animation-delay:-1.49s" x1="626.2" y1="30.6" x2="635.4" y2="-3.4" pathLength="100" stroke="#CBD3F6" stroke-width="1.6" stroke-linecap="round" stroke-dasharray="14 86"/><line class="sig" style="animation-delay:-1.18s" x1="704.9" y1="85.6" x2="680.2" y2="115.9" pathLength="100" stroke="#CBD3F6" stroke-width="1.6" stroke-linecap="round" stroke-dasharray="14 86"/><line class="sig" style="animation-delay:-0.59s" x1="808.5" y1="66.1" x2="799.5" y2="33.3" pathLength="100" stroke="#CBD3F6" stroke-width="1.6" stroke-linecap="round" stroke-dasharray="14 86"/><line class="sig" style="animation-delay:-1.35s" x1="808.5" y1="66.1" x2="843.2" y2="58.6" pathLength="100" stroke="#CBD3F6" stroke-width="1.6" stroke-linecap="round" stroke-dasharray="14 86"/><line class="sig" style="animation-delay:-2.01s" x1="620.0" y1="200.9" x2="581.9" y2="235.8" pathLength="100" stroke="#CBD3F6" stroke-width="1.6" stroke-linecap="round" stroke-dasharray="14 86"/><line class="sig" style="animation-delay:-1.44s" x1="620.0" y1="200.9" x2="645.7" y2="236.8" pathLength="100" stroke="#CBD3F6" stroke-width="1.6" stroke-linecap="round" stroke-dasharray="14 86"/><line class="sig" style="animation-delay:-1.49s" x1="622.3" y1="141.9" x2="653.0" y2="94.1" pathLength="100" stroke="#CBD3F6" stroke-width="1.6" stroke-linecap="round" stroke-dasharray="14 86"/><line class="sig" style="animation-delay:-0.31s" x1="768.8" y1="65.7" x2="799.5" y2="33.3" pathLength="100" stroke="#CBD3F6" stroke-width="1.6" stroke-linecap="round" stroke-dasharray="14 86"/><line class="sig" style="animation-delay:-1.76s" x1="757.9" y1="144.2" x2="769.7" y2="107.4" pathLength="100" stroke="#CBD3F6" stroke-width="1.6" stroke-linecap="round" stroke-dasharray="14 86"/><line class="sig" style="animation-delay:-1.21s" x1="802.9" y1="233.8" x2="769.8" y2="247.4" pathLength="100" stroke="#CBD3F6" stroke-width="1.6" stroke-linecap="round" stroke-dasharray="14 86"/><line class="sig" style="animation-delay:-2.06s" x1="557.6" y1="22.0" x2="582.3" y2="50.1" pathLength="100" stroke="#CBD3F6" stroke-width="1.6" stroke-linecap="round" stroke-dasharray="14 86"/><line class="sig" style="animation-delay:-0.44s" x1="744.2" y1="196.7" x2="716.8" y2="171.3" pathLength="100" stroke="#CBD3F6" stroke-width="1.6" stroke-linecap="round" stroke-dasharray="14 86"/><circle cx="626.2" cy="30.6" r="2.1" fill="#646F9A"/><circle cx="743.6" cy="10.5" r="2.3" fill="#7584C6"/><circle cx="704.9" cy="85.6" r="2.2" fill="#6F7DB8"/><circle class="hub" style="animation-delay:-1.59s" cx="495.9" cy="121.9" r="4.2" fill="#2B41B8" stroke="#8497EE" stroke-width="1.4"/><circle cx="503.6" cy="15.2" r="1.8" fill="#53586D"/><circle cx="665.1" cy="203.7" r="2.1" fill="#6A76A9"/><circle cx="535.0" cy="49.1" r="1.8" fill="#575E78"/><circle cx="735.9" cy="234.6" r="2.3" fill="#7482C3"/><circle cx="843.2" cy="3.9" r="2.6" fill="#8396EB"/><circle class="hub" style="animation-delay:-1.91s" cx="808.5" cy="66.1" r="4.2" fill="#2B41B8" stroke="#8497EE" stroke-width="1.4"/><circle cx="620.0" cy="200.9" r="2.0" fill="#636D98"/><circle cx="563.8" cy="140.9" r="1.9" fill="#5C6383"/><circle cx="739.6" cy="87.3" r="2.3" fill="#7483C5"/><circle cx="709.0" cy="8.1" r="2.3" fill="#707EB9"/><circle cx="622.3" cy="141.9" r="2.0" fill="#646E99"/><circle cx="789.0" cy="170.9" r="2.5" fill="#7B8CD7"/><circle class="hub" style="animation-delay:-1.08s" cx="701.2" cy="216.0" r="4.2" fill="#2B41B8" stroke="#8497EE" stroke-width="1.4"/><circle cx="768.8" cy="65.7" r="2.4" fill="#7988D0"/><circle class="hub" style="animation-delay:-2.62s" cx="482.5" cy="163.1" r="4.2" fill="#2B41B8" stroke="#8497EE" stroke-width="1.4"/><circle cx="757.9" cy="144.2" r="2.4" fill="#7786CC"/><circle cx="802.9" cy="233.8" r="2.5" fill="#7D8EDC"/><circle cx="683.2" cy="162.0" r="2.2" fill="#6C79B0"/><circle cx="557.6" cy="22.0" r="1.9" fill="#5B6281"/><circle cx="607.5" cy="98.3" r="2.0" fill="#626B94"/><circle cx="448.7" cy="99.3" r="1.6" fill="#4B4F58"/><circle cx="836.4" cy="168.8" r="2.6" fill="#8295E9"/><circle cx="813.3" cy="196.3" r="2.5" fill="#7F90E0"/><circle cx="653.0" cy="94.1" r="2.1" fill="#6873A4"/><circle cx="523.8" cy="154.4" r="1.8" fill="#565C74"/><circle cx="441.2" cy="30.7" r="1.6" fill="#4A4D55"/><circle cx="522.6" cy="85.1" r="1.8" fill="#565C74"/><circle cx="471.4" cy="215.8" r="1.7" fill="#4E5361"/><circle cx="680.2" cy="115.9" r="2.2" fill="#6C78AF"/><circle class="hub" style="animation-delay:-1.67s" cx="799.5" cy="33.3" r="4.2" fill="#2B41B8" stroke="#8497EE" stroke-width="1.4"/><circle class="hub" style="animation-delay:-1.74s" cx="557.2" cy="189.6" r="4.2" fill="#2B41B8" stroke="#8497EE" stroke-width="1.4"/><circle cx="473.5" cy="63.5" r="1.7" fill="#4F5362"/><circle cx="599.3" cy="169.3" r="2.0" fill="#616A90"/><circle cx="837.4" cy="106.5" r="2.6" fill="#8295E9"/><circle cx="582.3" cy="50.1" r="1.9" fill="#5E678A"/><circle cx="803.0" cy="114.7" r="2.5" fill="#7D8FDC"/><circle cx="744.2" cy="196.7" r="2.3" fill="#7584C7"/><circle cx="538.9" cy="225.0" r="1.8" fill="#585F7A"/><circle cx="670.8" cy="38.9" r="2.2" fill="#6B77AB"/><circle cx="730.9" cy="121.4" r="2.3" fill="#7382C2"/><circle cx="581.9" cy="235.8" r="1.9" fill="#5E678A"/><circle cx="847.1" cy="205.1" r="2.6" fill="#8496ED"/><circle cx="554.4" cy="102.5" r="1.9" fill="#5A6280"/><circle cx="500.0" cy="244.2" r="1.7" fill="#52586B"/><circle cx="716.8" cy="171.3" r="2.3" fill="#717FBC"/><circle cx="635.4" cy="-3.4" r="2.1" fill="#66709E"/><circle cx="595.6" cy="-4.1" r="2.0" fill="#60698F"/><circle cx="444.8" cy="184.2" r="1.6" fill="#4B4E57"/><circle cx="645.7" cy="236.8" r="2.1" fill="#6772A2"/><circle class="hub" style="animation-delay:-2.65s" cx="769.7" cy="107.4" r="4.2" fill="#2B41B8" stroke="#8497EE" stroke-width="1.4"/><circle cx="843.2" cy="58.6" r="2.6" fill="#8396EB"/><circle cx="769.8" cy="247.4" r="2.4" fill="#7989D0"/><circle cx="780.4" cy="2.4" r="2.4" fill="#7A8AD4"/><circle cx="461.5" cy="133.2" r="1.7" fill="#4D515D"/></g>
<rect width="840" height="240" filter="url(#grain)" opacity=".5"/>
<text x="70" y="44" class="cap">BELÉM, PA  ·  1°27′S 48°30′W</text>
<text x="68" y="104" class="nm">Lavínia Alencar</text>
<text x="46" y="152" class="pr">›</text>
<g transform="translate(0,20)"><clipPath id="c0"><rect x="72" y="108" height="32" width="0"/></clipPath><text x="72" y="132" clip-path="url(#c0)" class="ty">Analytics engineer</text><clipPath id="c1"><rect x="72" y="108" height="32" width="0"/></clipPath><text x="72" y="132" clip-path="url(#c1)" class="ty">Technology · Design · Creation · Coffee</text><clipPath id="c2"><rect x="72" y="108" height="32" width="0"/></clipPath><text x="72" y="132" clip-path="url(#c2)" class="ty">Code, electronics, 3D printing</text>
<g class="cur"><rect x="74" y="110" width="3" height="26" fill="#8497EE"/></g></g>
</svg>